<svg width="24" height="24" xmlns="http://www.w3.org/2000/svg"><path d="M12 0c6.617 0 12 5.383 12 12s-5.383 12-12 12S0 18.617 0 12 5.383 0 12 0Zm3 5H9a4 4 0 0 0-4 4v6a4 4 0 0 0 4 4h6a4 4 0 0 0 4-4V9a4 4 0 0 0-4-4Zm-.235 1.235a3 3 0 0 1 3 3v5.53l-.005.176a3 3 0 0 1-2.995 2.824h-5.53l-.176-.005a3 3 0 0 1-2.824-2.995v-5.53l.005-.176a3 3 0 0 1 2.995-2.824Zm-2.97 2.47a3.5 3.5 0 1 0 0 7 3.5 3.5 0 0 0 0-7Zm0 1.236a2.265 2.265 0 1 1 0 4.53 2.265 2.265 0 0 1 0-4.53Zm3.91-2.47a.824.824 0 1 0 0 1.647.824.824 0 0 0 0-1.647Z"/></svg>