<svg width="24" height="24" xmlns="http://www.w3.org/2000/svg"><path d="M12 0c6.617 0 12 5.383 12 12s-5.383 12-12 12S0 18.617 0 12 5.383 0 12 0Zm4.744 9.801c-.336-2.701-2.769-4.076-5.362-3.755-2.049.254-4.092 2.091-4.178 4.715-.045 1.374.25 2.454 1.203 2.947.331.172.708-.06.747-.464.063-.65-.435-.952-.53-1.61-.506-3.46 3.604-5.822 5.754-3.405 1.488 1.674.508 6.821-1.891 6.287-2.3-.512 1.125-4.61-.71-5.414-1.492-.653-2.284 2-1.577 3.318-.372 2.035-1.13 3.965-1.02 6.395.018.376.448.523.661.23.733-1.005 1.042-2.48 1.305-4.005.589.396.905.809 1.656.873 2.771.237 4.32-3.064 3.942-6.112Z"/></svg>