<svg version="1.0" xmlns="http://www.w3.org/2000/svg" width="933.333" height="933.333" viewBox="0 0 700 700"><path d="M326.5 11.6c-1.6.2-7.9.9-14 1.5-54.6 5.5-112.4 27.4-158.5 60.2-30.5 21.6-59.7 51-81.5 81.7-29.5 41.8-50.7 94.6-57.9 145-1.6 10.9-3.6 32-3.6 37.9v3.3l12.3-.4c15.1-.6 19-1.8 43.2-13.8 20.3-10 26.6-12.4 37.8-13.9 6.4-.9 21.7-.6 21.7.4 0 .2-2.7 5.8-6 12.6s-6 12.9-6 13.5c0 .8-3.5 1.3-10.2 1.6-12.7.6-19.2 2.8-39 13.1-7.9 4.1-17.6 8.7-21.6 10.1-6.9 2.5-21 4.6-28.1 4.3l-3.4-.2.2 6c.2 3.3.6 8.7.9 12 .8 6.6 1.6 7.2 9.7 7.4 10.5.2 21.6-3.8 41.5-14.9 13.7-7.6 23.5-11 33.4-11.7 5.1-.4 7.7-.3 7.3.4-.3.5-1.5 5.2-2.7 10.4-1.1 5.2-2.2 10.4-2.5 11.6-.5 1.9-1.2 2.3-4.8 2.3-6.4 0-18.9 4.9-32.6 12.8-17.8 10.3-28.4 13.8-39.3 13-5.9-.4-5.8-.8-1.5 15.7l3.2 12 6-.2c7.7-.2 15.1-3 26.2-9.9C72.9 425.2 83.2 421 92.2 421h3.9l-.3 10.7-.3 10.7-31.8 12.1c-31.2 11.8-31.8 12-31.2 14.5.9 3.4 9.4 23.3 10.5 24.4 2.1 2.1 10.5-1.9 21.4-10.1 6.1-4.6 13.4-9.2 16.2-10.2 5-1.9 17.4-3.9 17.4-2.8 0 .3.7 4.1 1.5 8.4.8 4.3 1.5 8.1 1.5 8.4 0 .4-2.4 1-5.3 1.3-9.2 1.2-14.4 4.3-30.9 18.3-.9.8-4.1 2.5-7.1 3.7l-5.5 2.2 6.5 11c3.6 6 7.1 11.5 7.9 12.3 1.6 1.8 2.9.9 13.4-8.4 9-8.1 15.7-12.1 22.8-13.6 2.8-.7 5.2-1.6 5.2-2.1 0-.8-3.2-12.6-4.5-16.7-.5-1.6.4-1.9 6.8-2.4 8.4-.6 23.6-5.4 31.4-9.8 2.9-1.6 7.9-5 11.3-7.4l6-4.5v-5.4c0-12 5.6-23.5 21.7-44.3 20.7-26.9 22.9-31 22.6-42.8-.2-7.7-1.7-14.7-8.9-41-2.5-9.2-2.8-11.5-2.8-28 0-16.8.2-18.6 2.7-26.9 3.6-11.5 8.4-21.9 14.3-30.8 5.1-7.6 14.9-18.6 19.6-21.9 2.2-1.6 1.6-.3-3.2 6.3-11.9 16.6-19.8 36.2-22.1 55.1-1.9 15.3 0 28.3 7.6 53.4 5.3 17.5 6.8 26.2 6.3 36.8-.4 8.5-.7 10-4.6 17.7-2.3 4.5-10 16-17.1 25.4-7.1 9.5-14.6 20.6-16.7 24.9-3.3 6.7-3.8 8.8-4.2 16.5-.6 12 1.4 19.7 9.5 36.2l6.4 13.3-3.8 3.3C168.8 534 145.1 545 130 545c-7.3 0-9.3-1.6-13-10-2.6-6.3-2.8-6.5-6.1-6.2-4.1.4-11 3.4-14.7 6.2-1.5 1.2-6.2 5.6-10.5 9.7l-7.8 7.6 5.6 7.1c3 3.9 6.8 8.7 8.4 10.6l3 3.5 7.8-8.1c8.1-8.5 13.8-12.8 18.5-13.9 2.5-.6 2.9-.2 5.7 5.4l3.1 6-3.2 1.7c-5.5 2.8-10.4 7.2-15.9 14l-5.2 6.5 5.4 5.6c3 3 7.6 7.3 10.3 9.6l4.9 4.2 2.1-3c2.9-4.1 12.8-14.5 14.7-15.6 1.3-.7 2.5.3 5.7 4.3l4 5.1-3.1 2.6C146 601 138 611.7 138 613.5c0 1.2 20.2 16.9 23.3 18.1.9.3 1.9-1.8 3.4-6.8 2.5-8.2 6-14.4 18.3-31.8 17-24 20.2-31.3 20.3-46v-8.5l2.3 5c8 17.7 5.2 30-14 61.4-8.6 14.1-13.4 25-14.3 32l-.6 4.9 8.4 4.5c12.2 6.7 11.5 6.6 12.3.7 1.3-9.8 5.7-21 17-43.4 12.8-25.5 16-34.1 16-43.6 0-10.8-3.8-19.8-17.6-42.3-14.7-23.8-19.8-36.8-19.8-49.7 0-13.6 4.2-22.3 22.8-46.9 6.9-9.2 14.1-20 16.1-24.1 3.6-7.4 3.6-7.7 3.5-20v-12.5l-7.1-21c-9.3-27.4-9.8-29.9-9.7-48.5 0-13 .4-16.9 2.3-24 2.7-10 9.1-24.2 15.1-33.1 4.6-6.8 18.1-20.8 22.1-22.9 2.3-1.3 2.3-1.3.6 1.1-14.5 20.2-20 31-23.9 46.6-1.8 7.1-2.2 11.7-2.3 24.3 0 18.1 1.3 24.1 10 47.4 8.3 22.1 9.9 29 9.9 43.6 0 10.6-.3 13.3-2.2 18.1-2.6 6.6-10.9 19.1-22.8 34.4-23.5 30.3-23 44.2 3.1 85 16.3 25.4 20.2 35.6 19.2 50-.7 9.9-3 16.7-10.7 31.5-19.4 37-24.5 50.1-23.8 60.2l.3 4.2 10.5 4.2c5.8 2.4 11 4.3 11.5 4.3.7.1 1.1-3 1.2-7.7.3-12.6 3.9-22.8 17.8-50.7 6.8-13.8 13.4-27.8 14.5-31.3 6.1-18.7 2.7-31.5-16.1-60.3-10.8-16.6-18.1-30.2-20.3-37.8-.9-3.2-1.6-9.1-1.6-14 .1-14.3 4.3-23.5 19.6-42.8 10.1-12.7 16-21.7 18.4-28 5.8-15.6 4.3-32.4-5.1-55-2.3-5.4-5.9-14.1-8-19.3-5.5-13.3-8-23.7-8.6-36.2-1.1-21.1 4.1-39.8 16.3-58.5 3.8-5.9 21.6-24.3 23.4-24.3 1.9 0 1 1.8-4.6 9.9-10.8 15.8-16.2 30.5-18.4 50.3-2.4 21.2.3 32.5 16.4 69.6 9.9 22.8 11.9 30.1 12 44.7.1 9.3-.3 13.2-1.8 17.5-3 8.9-8.1 17.9-15.6 27.5-18 23.2-21.3 30.1-21.4 44-.1 14.3 3.3 22.3 20.4 48.5 21.7 33.1 25.4 46.4 18.9 67.7-1.1 3.8-7 17.1-13.1 29.7-6 12.6-12.3 27-14.1 32-2.7 8.1-3.1 10.4-3.1 21l-.1 11.9 9.5 2.2c5.2 1.2 10.9 2.4 12.5 2.8l3.1.6-.4-9.3c-.8-18.3 3.4-33.5 17.7-63.5 12.3-25.5 14.5-32.2 14.5-43.6.1-14.4-3.7-23.3-21.1-49.6-14-21.1-16.6-25.7-19.8-35.4-2.4-6.9-2.7-9.2-2.3-17 .6-12.9 3.4-18.6 20.2-40.5 7.8-10.1 12-18.3 14.4-28.1 1.4-5.5 2.5-7.8 4.5-9.2l2.6-2 10.3 2.8c14.2 4 25.4 4 39.6 0l10.3-2.8 2.6 2c2 1.5 3.1 3.7 4.5 9.4 2.5 10.2 6.4 17.7 15.4 29.4C418.3 447 422 455 422 467.9c0 13-4.3 22.6-22.1 49.7-21.9 33.4-25.3 45.2-18.8 65.9 1.2 3.8 6.3 15.8 11.4 26.5 15.1 31.8 19.1 45.9 18.3 64.2l-.5 9.7 3.1-.6c1.7-.4 7.4-1.6 12.6-2.8l9.5-2.2.3-8.4c.5-15.2-2.5-24.9-17.7-56.2-12.9-26.5-15.5-34.5-15.5-47.2.1-15.5 3.7-23.7 22.7-52.5 4.9-7.4 10.3-16.2 11.9-19.5 11.6-22.8 9.9-39-6-60-2.6-3.3-7-9.2-9.9-13-7.7-10.1-13.8-22.7-15.3-31.6-2.8-16.5.3-30 14-62 13.4-31.1 15.9-42.2 14.1-62.2-1.9-20.3-7.6-36-18.6-51.7-8.5-12.2-7.5-13.2 3.4-3.3 9.6 8.7 16.2 17.6 22.2 29.8 7.6 15.3 9.3 22.9 9.3 41.5 0 17.6-1.3 24.3-8.3 41-2.1 5.2-5.8 13.9-8 19.3-7 16.8-10 32.8-8.1 43.9 1.9 11.9 6.4 20 21.9 39.8 14.8 18.9 19.1 28.3 19.1 41.8 0 14.6-4.5 25.4-21.9 52.1-14.9 22.9-20 36-18.8 48.1 1 9.5 4.5 18.6 15.3 39.5 15.5 30.4 19.5 41.5 19.6 55.2.1 4.6.5 7.3 1.2 7.3.6-.1 5.8-2 11.6-4.3l10.5-4.3-.1-6.5c-.1-9.1-4.1-20.5-13.7-38.9-18.3-35.1-19.6-38.2-20.4-50.5-1-14.4 2.9-24.6 19.2-50 17.4-27.2 22-39.9 19.5-53.7-1.5-8.5-6.1-17.9-13.7-27.9-3.2-4.1-8.4-10.9-11.5-15-13.9-18.2-17.4-27.4-16.5-43.8.6-12.4 2.8-21 10.2-40.6 8.7-23.2 10-29.4 9.9-47.5 0-12.6-.4-17.1-2.2-24.3-3.8-15.1-11.1-29.8-21.3-42.7-2.1-2.7-3.9-5.2-3.9-5.5 0-1.4 9.6 6.4 14.6 11.8 10.9 11.8 20 28.3 24.5 44.7 2 7.2 2.4 10.8 2.4 24 0 18.6-.6 21.2-9.8 48.5l-7.1 21V377c-.1 12.3-.1 12.6 3.5 20 2 4.1 9.2 14.9 16.1 24.1 18.6 24.6 22.8 33.3 22.8 46.9 0 12.9-5.1 25.9-19.8 49.7-13.8 22.5-17.6 31.5-17.6 42.3 0 9.5 3.3 18.3 16.1 43.7 11.2 22.4 15.6 33.5 16.9 43.3.8 5.9.1 6 12.3-.7l8.4-4.5-.6-4.9c-.9-7-5.4-17-14.6-32.3-19.1-31.6-21.8-43.5-13.6-60.8l2.5-5.3-.5 5.2c-.7 7.1 1.7 18.3 5.9 26.8 1.9 3.8 7.8 13.1 13.1 20.5 12.7 17.6 17.9 26.7 20.1 34.6 1.2 4.6 2.1 6.3 3.1 6 3.1-1.2 23.3-16.9 23.3-18.1 0-1.8-8-12.5-11.7-15.6l-3.1-2.6 4-5.1c3.2-4 4.4-5 5.7-4.3 1.9 1.1 10.5 10.1 14.2 15.1l2.6 3.4 4.9-4.1c2.7-2.3 7.3-6.6 10.3-9.7l5.4-5.5-5.3-6.5c-5.8-7.2-13-13.3-16.7-14.2-1.3-.4-2.3-.8-2.3-1 0-.3 1.4-3.2 3.1-6.5 2.8-5.6 3.2-6 5.7-5.4 4.6 1.1 10.4 5.4 18.5 13.9l7.8 8.1 3-3.5c1.6-1.9 5.4-6.7 8.4-10.6l5.6-7.1-7.6-7.4c-4.2-4.1-10.1-9-13-11.1-5.2-3.5-14.3-6.4-15.6-5-.4.4-1.7 3.2-2.9 6.2-1.3 3-3.4 6.6-4.8 7.9-2.4 2.2-3.2 2.3-10.7 1.8-15.8-1.1-37.1-11.1-52.8-25l-4.9-4.2 6.5-13.3c8-16.5 10.1-24.2 9.5-36-.6-12-4.4-19.6-20.9-41.5-7.2-9.6-14.8-20.9-17.2-25.6-3.9-7.8-4.2-9.1-4.5-17.7-.4-10.9 1-19.1 6.8-38.3 6.2-20.6 7.3-27.1 7.3-41.6 0-10-.5-15-2.1-21.8-3.9-15.8-11.4-31.6-21.7-45.6-4.2-5.6-4.4-6.1-1.8-4.3 4.7 3.3 14.5 14.3 19.2 21.3 5.9 9 11.5 20.9 14.8 31.4 2.6 8.5 2.7 10.1 2.7 27-.1 16.4-.3 18.9-2.8 28-7.3 26.8-8.7 33.3-8.9 41-.2 7.2.1 8.7 3 14.6 1.8 3.7 6.1 10.4 9.6 15s9.4 12.5 13.3 17.6c13.1 17.3 18.3 28.5 18.4 39.5 0 5.3.2 5.8 3.8 8.6 14.5 11.5 33.5 19.1 47.5 19.2 4.3 0 4.8.2 4.2 1.9-1.4 4.5-4.5 16.2-4.5 17 0 .5 2.4 1.4 5.3 2 7 1.5 13.7 5.5 22.7 13.6 4.1 3.7 8.6 7.5 9.9 8.3 2.8 1.9 2.2 2.6 11.8-13.1l6.1-10.1-5.5-2.2c-3-1.2-6.2-2.9-7.1-3.7-16.4-14-21.6-17-30.9-18.2-2.9-.4-5.3-1-5.3-1.3 0-.4.7-4.2 1.5-8.5s1.5-8.1 1.5-8.4c0-1 12.7 1 17.5 2.8 2.8 1.1 10.1 5.7 16.3 10.4 10.5 7.9 17.5 11.4 20.6 10.2 1.2-.5 9.9-20 11-24.7.6-2.4-.1-2.8-31.1-14.5l-31.8-12.1-.3-10.8-.3-10.9 6.4.6c8.6.8 15.7 3.6 28.4 11.4 6 3.6 12.9 7.6 15.5 8.9 5 2.6 17.4 5.1 20 4.2 1-.4 2.6-5 4.7-13.2 1.7-6.9 3.1-13.1 3.1-13.8 0-.9-1.3-1.2-4.5-1-11 .9-24-3.5-42.5-14.5-11.1-6.5-21-10.4-28.2-11.1-4.9-.4-5.9-.8-6.3-2.6-.2-1.2-1.5-6.8-2.9-12.5l-2.4-10.4 7.8.6c10.1.8 20.3 4.6 36 13.4 6.9 3.9 15.9 8.2 19.9 9.7 8.3 3 21.1 4.4 25.3 2.8 2.5-1 2.6-1.5 3.3-10.9.3-5.4.7-10.7.8-11.8.2-1.7-.3-2-3.8-1.7-6.6.4-20.2-1.7-27.8-4.4-4-1.5-13.5-5.9-21.2-9.9-19.8-10.3-26.7-12.6-39.2-13.3-5.7-.2-10.3-.9-10.3-1.4 0-.6-2.7-6.6-6-13.5s-6-12.7-6-12.8c0-.8 14.7-1 20.9-.4 10.7 1.2 18.3 3.9 38.6 13.9 24.2 12 28.1 13.2 43.4 13.8l12.4.5-.7-10.4c-3.8-57-19.3-107.5-48-155.7-27.5-46.1-70.2-88.7-116.8-116.3C483.3 34.8 439 19.6 392 13.4c-11.7-1.5-58.2-2.8-65.5-1.8zm32.6 42.1 8.5 19.8 21.1 1.5c11.6.8 21.4 1.8 21.7 2.1.4.4-19.9 18.9-29.2 26.5l-2.5 2.1 7.3 18.9c4 10.4 7.5 19.5 7.7 20.2.4.8 1.9 0 4.7-2.6 17.1-15.8 41-26.6 66.2-30l6.1-.8-5.2 8.5c-8.7 14.3-23.7 46.2-22.4 47.5.2.2 4.4-2.2 9.2-5.4 13.6-9 31.2-15.4 48-17.5l5.8-.7-6.9 9.4c-11.3 15.3-19.5 28.8-28.7 47.3-1.6 3.3-3.7 6.1-4.6 6.3-.9.2-6.2-1.7-11.7-4.2-65.9-29.6-142.5-29.6-208.4 0-5.5 2.5-10.8 4.4-11.7 4.2-.9-.2-3.6-4.1-5.9-8.8-9.3-18.1-19.7-35-30-48.3l-4.5-5.9 5.9.7c16.9 2.1 35.1 8.7 48.4 17.6 4.7 3.1 8.7 5.6 8.9 5.3 1.3-1.3-13.7-33.2-22.4-47.5l-5.2-8.5 6.1.8c24.4 3.3 48 13.8 64.7 28.7 4.8 4.3 5.8 4.8 6.4 3.3.3-.9 3.8-10 7.7-20.1l7-18.4-3-2.6c-15.3-12.9-28.9-25.7-27.9-26.2.7-.3 10.2-1.2 21.2-1.9s20.3-1.4 20.6-1.6c.3-.1 4.3-9.1 8.9-19.8 4.6-10.8 8.6-19.6 9-19.6.4 0 4.5 8.9 9.1 19.7zm-266 128c13.8 11.9 23 26.6 28 44.9 1.2 4.3 2.3 8 2.4 8.2.2.2 3.8-1.4 8.1-3.6 14.5-7.2 26.7-10.2 41.6-10.2 8.8 0 21.5 2 27.2 4.4l2.9 1.2-10.9 8.6c-17.9 14.1-37.1 34.2-49.2 51.4l-4.3 6.2-4.7-1.4c-7.1-2.2-18-2.8-25.8-1.5-9.8 1.7-17.6 4.4-36.6 12.7-22 9.6-29.2 11.8-39.3 11.8-4.4 0-8.6-.3-9.3-.8-.9-.5 1.5-3.8 7.7-10.9 25.9-29.7 42-57.2 48.7-83.3 2.8-11 4.9-29.1 4-35.1-1.2-8.7 1.5-9.5 9.5-2.6zm523.5 8.3c.6 37.1 16.2 70.7 51.9 112 6.3 7.3 9 11.2 8.2 11.7-.6.4-4.8.7-9.2.7-10 0-18.1-2.4-37.1-10.9-17.8-8-28.9-11.9-38.3-13.5-8.2-1.4-19.2-.8-26.4 1.4l-4.4 1.3-7.1-9.6c-13.1-17.7-30.6-35.6-48.5-49.5-4.8-3.8-8.6-7-8.4-7.3.2-.2 3.5-1.3 7.3-2.5 5.7-1.7 9.5-2.1 22.4-2.1 14.1-.1 16.3.2 24.3 2.6 4.8 1.5 12.4 4.5 16.8 6.8 4.5 2.2 8.2 3.9 8.4 3.7.1-.2 1.2-3.9 2.4-8.2 2.5-9.3 7.4-20.2 12.2-27.3 6.8-10.1 20-22.6 23.3-22.1 1.8.3 2 1.2 2.2 12.8zm-246.3 8.9c15.4 4 30.5 14.1 37.7 25.3 3.9 6 6.6 12.5 5.7 13.5-.3.3-2.2-.1-4.3-.7-15.1-5-35.9-1.4-44.7 7.8-5.5 5.7-7 25-3.1 38.3 2.1 7 4.8 6.6 8.9-1.4 3.5-6.7 5.4-7.6 12.2-5.3 6.7 2.3 15.4 2.1 21.5-.6 5.8-2.5 7.3-2 10.1 3.3 2.7 5 1.8 19.5-1.8 30.9-9.2 28.9-28.6 51.7-50.7 59.6-2.4.8-7.6 1.5-11.8 1.5-13.4.1-25.2-5.9-38-19.1-17.3-17.9-28.9-45.1-27.7-65.4.3-7.1.7-8.2 3.1-10.3 3.3-2.8 4.2-2.8 9.7-.3 5.3 2.4 13.6 2.6 20.5.5 6.8-2 9.3-1.9 13.9 1 2.2 1.3 4.5 2.5 5.1 2.5 2.9 0 4.4-16.6 2.4-27.1-1.3-6.5-4.3-9.9-12.5-14-9.5-4.6-26.3-5.6-35.8-2-5.8 2.2-6.1.8-1.6-8.2 7.9-15.7 27.5-28.2 49.4-31.7 8.2-1.2 22.8-.4 31.8 1.9zM312.2 249c5.7 2.2 8.4 4.1 11.1 8 2.5 3.7 2.1 4.1-2.5 2.4-2.4-.9-8.2-1.8-12.9-2.1-7.3-.5-9.2-.2-13.3 1.6-2.7 1.1-5 2.1-5.3 2.1-.2 0-1-1.5-1.8-3.3-3-7.2.9-10.6 12.2-10.7 4.9 0 8.9.6 12.5 2zm97.1-.9c3.8 1.7 5 5.3 3.2 9.4-.7 1.9-1.6 3.5-2 3.5-.3 0-2.2-.9-4.2-2-4.6-2.4-14.2-2.7-22.3-.5-3 .8-5.6 1.5-5.7 1.5-.2 0-.3-1-.3-2.3 0-3.5 5.2-7.7 11.9-9.8 4-1.1 16.7-1 19.4.2z"/><path d="M331.5 142.1c-9.3 7.2-17.2 13.8-17.3 14.6-.3 1.2.3 1.4 3.5 1 16.6-2.4 33-3 46.6-1.8 7.8.7 15.9 1.5 18 1.8 3.2.4 3.8.2 3.5-1-.4-1.8-34.1-27.7-36-27.6-.7 0-8.9 5.9-18.3 13zM335.6 304.7c-1.6.8-2.6 2.1-2.4 3.1.5 2.5 10.4 6.1 16.8 6.1s16.3-3.6 16.8-6.1c.6-3.1-3.8-4.2-16.4-4.4-8.8-.1-12.8.2-14.8 1.3zM323.5 326.2c-.9 2.4 11.1 14.7 17 17.4 10.6 5 20.1 2.1 30.3-9.2 3.4-3.8 6.2-7.2 6.2-7.5 0-1.5-3.2-1.7-10.2-.7-7.2 1-34.6.5-40-.8-2-.4-2.9-.2-3.3.8z"/></svg>