<svg width="24" height="24" xmlns="http://www.w3.org/2000/svg"><path d="M12 0c6.617 0 12 5.384 12 12 0 6.617-5.383 12-12 12S0 18.617 0 12C0 5.384 5.383 0 12 0Zm1.933 6.006c-.383.025-.76.136-1.1.319a2.845 2.845 0 0 0-1.416 1.834c-.092.384-.084.763-.028 1.15.008.065.002.074-.054.065-2.143-.328-3.918-1.115-5.36-2.803-.063-.073-.097-.073-.148.006-.63.971-.325 2.532.463 3.299.106.102.213.204.33.298-.043.008-.567-.05-1.034-.298-.063-.04-.094-.018-.1.055-.006.105.003.202.017.316.12.985.785 1.896 1.694 2.25.108.047.227.089.343.109-.207.046-.42.08-1.014.032-.074-.015-.102.023-.074.096.447 1.25 1.41 1.622 2.131 1.834.097.017.194.017.29.04-.006.01-.01.01-.017.018-.239.375-1.069.654-1.455.792a5.082 5.082 0 0 1-2.211.291c-.119-.018-.143-.016-.176 0-.032.021-.004.05.034.082.15.102.304.193.46.28.472.257.964.462 1.478.607 2.656.754 5.647.2 7.642-1.835 1.566-1.598 2.114-3.802 2.114-6.01 0-.086.1-.133.159-.18.407-.314.731-.69 1.035-1.11A.32.32 0 0 0 18 7.356v-.038c0-.035.004-.024-.049 0a5.228 5.228 0 0 1-1.313.386c.211-.037.523-.43.648-.59.19-.242.349-.518.437-.817.012-.023.02-.053-.002-.07-.029-.012-.047-.006-.07.005a6.617 6.617 0 0 1-1.56.614.103.103 0 0 1-.107-.03c-.046-.052-.088-.102-.137-.143a2.73 2.73 0 0 0-.755-.475 2.569 2.569 0 0 0-1.16-.192Z"/></svg>