<?xml version="1.0" encoding="UTF-8"?>
<svg width="24px" height="24px" viewBox="0 0 24 24" version="1.1" xmlns="http://www.w3.org/2000/svg"
    xmlns:xlink="http://www.w3.org/1999/xlink">
    <!-- Generator: Sketch 46 (44423) - http://www.bohemiancoding.com/sketch -->
    <title>right</title>
    <desc>Created with Sketch.</desc>
    <defs></defs>
    <!-- <g id="icons" stroke="none" stroke-width="1" fill="none" fill-rule="evenodd">
        <g id="Artboard" transform="translate(-582.000000, -101.000000)" fill-rule="nonzero" fill="#FFFFFF">
            <polygon id="right" transform="translate(583.250000, 112.250000) rotate(-45.000000) translate(-583.250000, -112.250000) " points="575.928932 118.571068 575.928932 119.571068 590.571068 119.571068 590.571068 104.928932 589.571068 104.928932 589.571068 118.571068"></polygon>
        </g>
    </g> -->
    <path
        d="M8.902 17.656c-.293.293-.293.768 0 1.06.293.294.768.294 1.06 0L16.38 12.3c.293-.293.293-.768 0-1.06L9.86 4.72c-.293-.293-.767-.293-1.06 0-.293.293-.293.767 0 1.06l5.99 5.99L8.9 17.656z">
    </path>
</svg>
