<?xml version="1.0" encoding="UTF-8"?>
<svg width="24px" height="24px" viewBox="0 0 24 24" version="1.1" xmlns="http://www.w3.org/2000/svg"
    xmlns:xlink="http://www.w3.org/1999/xlink">
    <!-- Generator: Sketch 46 (44423) - http://www.bohemiancoding.com/sketch -->
    <title>right</title>
    <desc>Created with Sketch.</desc>
    <defs></defs>
    <path
        d="M12.65 3.04l7.66 14.165c.264.558-.04 1.2-.662 1.2H4.352c-.622 0-.926-.642-.652-1.22l7.644-14.137c.297-.61 1.025-.606 1.307-.008zM11 8.904v3.192c0 .5.448.904 1 .904s1-.405 1-.904V8.904c0-.5-.448-.904-1-.904s-1 .405-1 .904zM11 15c0 .552.448 1 1 1s1-.448 1-1-.448-1-1-1-1 .448-1 1z">
    </path>
</svg>
