<?xml version="1.0" standalone="no"?>
<!DOCTYPE svg PUBLIC "-//W3C//DTD SVG 20010904//EN"
 "http://www.w3.org/TR/2001/REC-SVG-20010904/DTD/svg10.dtd">
<svg version="1.0" xmlns="http://www.w3.org/2000/svg"
 width="700.000000pt" height="700.000000pt" viewBox="0 0 700.000000 700.000000"
 preserveAspectRatio="xMidYMid meet">
<metadata>
Created by potrace 1.14, written by Peter Selinger 2001-2017
</metadata>
<g transform="translate(0.000000,700.000000) scale(0.100000,-0.100000)"
fill="#000000" stroke="none">
<path d="M3265 6884 c-16 -2 -79 -9 -140 -15 -546 -55 -1124 -274 -1585 -602
-305 -216 -597 -510 -815 -817 -295 -418 -507 -946 -579 -1450 -16 -109 -36
-320 -36 -379 l0 -33 123 4 c151 6 190 18 432 138 203 100 266 124 378 139 64
9 217 6 217 -4 0 -2 -27 -58 -60 -126 -33 -68 -60 -129 -60 -135 0 -8 -35 -13
-102 -16 -127 -6 -192 -28 -390 -131 -79 -41 -176 -87 -216 -101 -69 -25 -210
-46 -281 -43 l-34 2 2 -60 c2 -33 6 -87 9 -120 8 -66 16 -72 97 -74 105 -2
216 38 415 149 137 76 235 110 334 117 51 4 77 3 73 -4 -3 -5 -15 -52 -27
-104 -11 -52 -22 -104 -25 -116 -5 -19 -12 -23 -48 -23 -64 0 -189 -49 -326
-128 -178 -103 -284 -138 -393 -130 -59 4 -58 8 -15 -157 l32 -120 60 2 c77 2
151 30 262 99 162 102 265 144 355 144 l39 0 -3 -107 -3 -107 -318 -121 c-312
-118 -318 -120 -312 -145 9 -34 94 -233 105 -244 21 -21 105 19 214 101 61 46
134 92 162 102 50 19 174 39 174 28 0 -3 7 -41 15 -84 8 -43 15 -81 15 -84 0
-4 -24 -10 -53 -13 -92 -12 -144 -43 -309 -183 -9 -8 -41 -25 -71 -37 l-55
-22 65 -110 c36 -60 71 -115 79 -123 16 -18 29 -9 134 84 90 81 157 121 228
136 28 7 52 16 52 21 0 8 -32 126 -45 167 -5 16 4 19 68 24 84 6 236 54 314
98 29 16 79 50 113 74 l60 45 0 54 c0 120 56 235 217 443 207 269 229 310 226
428 -2 77 -17 147 -89 410 -25 92 -28 115 -28 280 0 168 2 186 27 269 36 115
84 219 143 308 51 76 149 186 196 219 22 16 16 3 -32 -63 -119 -166 -198 -362
-221 -551 -19 -153 0 -283 76 -534 53 -175 68 -262 63 -368 -4 -85 -7 -100
-46 -177 -23 -45 -100 -160 -171 -254 -71 -95 -146 -206 -167 -249 -33 -67
-38 -88 -42 -165 -6 -120 14 -197 95 -362 l64 -133 -38 -33 c-175 -152 -412
-262 -563 -262 -73 0 -93 16 -130 100 -26 63 -28 65 -61 62 -41 -4 -110 -34
-147 -62 -15 -12 -62 -56 -105 -97 l-78 -76 56 -71 c30 -39 68 -87 84 -106
l30 -35 78 81 c81 85 138 128 185 139 25 6 29 2 57 -54 l31 -60 -32 -17 c-55
-28 -104 -72 -159 -140 l-52 -65 54 -56 c30 -30 76 -73 103 -96 l49 -42 21 30
c29 41 128 145 147 156 13 7 25 -3 57 -43 l40 -51 -31 -26 c-37 -31 -117 -138
-117 -156 0 -12 202 -169 233 -181 9 -3 19 18 34 68 25 82 60 144 183 318 170
240 202 313 203 460 l0 85 23 -50 c80 -177 52 -300 -140 -614 -86 -141 -134
-250 -143 -320 l-6 -49 84 -45 c122 -67 115 -66 123 -7 13 98 57 210 170 434
128 255 160 341 160 436 0 108 -38 198 -176 423 -147 238 -198 368 -198 497 0
136 42 223 228 469 69 92 141 200 161 241 36 74 36 77 35 200 l0 125 -71 210
c-93 274 -98 299 -97 485 0 130 4 169 23 240 27 100 91 242 151 331 46 68 181
208 221 229 23 13 23 13 6 -11 -145 -202 -200 -310 -239 -466 -18 -71 -22
-117 -23 -243 0 -181 13 -241 100 -474 83 -221 99 -290 99 -436 0 -106 -3
-133 -22 -181 -26 -66 -109 -191 -228 -344 -235 -303 -230 -442 31 -850 163
-254 202 -356 192 -500 -7 -99 -30 -167 -107 -315 -194 -370 -245 -501 -238
-602 l3 -42 105 -42 c58 -24 110 -43 115 -43 7 -1 11 30 12 77 3 126 39 228
178 507 68 138 134 278 145 313 61 187 27 315 -161 603 -108 166 -181 302
-203 378 -9 32 -16 91 -16 140 1 143 43 235 196 428 101 127 160 217 184 280
58 156 43 324 -51 550 -23 54 -59 141 -80 193 -55 133 -80 237 -86 362 -11
211 41 398 163 585 38 59 216 243 234 243 19 0 10 -18 -46 -99 -108 -158 -162
-305 -184 -503 -24 -212 3 -325 164 -696 99 -228 119 -301 120 -447 1 -93 -3
-132 -18 -175 -30 -89 -81 -179 -156 -275 -180 -232 -213 -301 -214 -440 -1
-143 33 -223 204 -485 217 -331 254 -464 189 -677 -11 -38 -70 -171 -131 -297
-60 -126 -123 -270 -141 -320 -27 -81 -31 -104 -31 -210 l-1 -119 95 -22 c52
-12 109 -24 125 -28 l31 -6 -4 93 c-8 183 34 335 177 635 123 255 145 322 145
436 1 144 -37 233 -211 496 -140 211 -166 257 -198 354 -24 69 -27 92 -23 170
6 129 34 186 202 405 78 101 120 183 144 281 14 55 25 78 45 92 l26 20 103
-28 c142 -40 254 -40 396 0 l103 28 26 -20 c20 -15 31 -37 45 -94 25 -102 64
-177 154 -294 157 -205 194 -285 194 -414 0 -130 -43 -226 -221 -497 -219
-334 -253 -452 -188 -659 12 -38 63 -158 114 -265 151 -318 191 -459 183 -642
l-5 -97 31 6 c17 4 74 16 126 28 l95 22 3 84 c5 152 -25 249 -177 562 -129
265 -155 345 -155 472 1 155 37 237 227 525 49 74 103 162 119 195 116 228 99
390 -60 600 -26 33 -70 92 -99 130 -77 101 -138 227 -153 316 -28 165 3 300
140 620 134 311 159 422 141 622 -19 203 -76 360 -186 517 -85 122 -75 132 34
33 96 -87 162 -176 222 -298 76 -153 93 -229 93 -415 0 -176 -13 -243 -83
-410 -21 -52 -58 -139 -80 -193 -70 -168 -100 -328 -81 -439 19 -119 64 -200
219 -398 148 -189 191 -283 191 -418 0 -146 -45 -254 -219 -521 -149 -229
-200 -360 -188 -481 10 -95 45 -186 153 -395 155 -304 195 -415 196 -552 1
-46 5 -73 12 -73 6 1 58 20 116 43 l105 43 -1 65 c-1 91 -41 205 -137 389
-183 351 -196 382 -204 505 -10 144 29 246 192 500 174 272 220 399 195 537
-15 85 -61 179 -137 279 -32 41 -84 109 -115 150 -139 182 -174 274 -165 438
6 124 28 210 102 406 87 232 100 294 99 475 0 126 -4 171 -22 243 -38 151
-111 298 -213 427 -21 27 -39 52 -39 55 0 14 96 -64 146 -118 109 -118 200
-283 245 -447 20 -72 24 -108 24 -240 0 -186 -6 -212 -98 -485 l-71 -210 0
-125 c-1 -123 -1 -126 35 -200 20 -41 92 -149 161 -241 186 -246 228 -333 228
-469 0 -129 -51 -259 -198 -497 -138 -225 -176 -315 -176 -423 0 -95 33 -183
161 -437 112 -224 156 -335 169 -433 8 -59 1 -60 123 7 l84 45 -6 49 c-9 70
-54 170 -146 323 -191 316 -218 435 -136 608 l25 53 -5 -52 c-7 -71 17 -183
59 -268 19 -38 78 -131 131 -205 127 -176 179 -267 201 -346 12 -46 21 -63 31
-60 31 12 233 169 233 181 0 18 -80 125 -117 156 l-31 26 40 51 c32 40 44 50
57 43 19 -11 105 -101 142 -151 l26 -34 49 41 c27 23 73 66 103 97 l54 55 -53
65 c-58 72 -130 133 -167 142 -13 4 -23 8 -23 10 0 3 14 32 31 65 28 56 32 60
57 54 46 -11 104 -54 185 -139 l78 -81 30 35 c16 19 54 67 84 106 l56 71 -76
74 c-42 41 -101 90 -130 111 -52 35 -143 64 -156 50 -4 -4 -17 -32 -29 -62
-13 -30 -34 -66 -48 -79 -24 -22 -32 -23 -107 -18 -158 11 -371 111 -528 250
l-49 42 65 133 c80 165 101 242 95 360 -6 120 -44 196 -209 415 -72 96 -148
209 -172 256 -39 78 -42 91 -45 177 -4 109 10 191 68 383 62 206 73 271 73
416 0 100 -5 150 -21 218 -39 158 -114 316 -217 456 -42 56 -44 61 -18 43 47
-33 145 -143 192 -213 59 -90 115 -209 148 -314 26 -85 27 -101 27 -270 -1
-164 -3 -189 -28 -280 -73 -268 -87 -333 -89 -410 -2 -72 1 -87 30 -146 18
-37 61 -104 96 -150 35 -46 94 -125 133 -176 131 -173 183 -285 184 -395 0
-53 2 -58 38 -86 145 -115 335 -191 475 -192 43 0 48 -2 42 -19 -14 -45 -45
-162 -45 -170 0 -5 24 -14 53 -20 70 -15 137 -55 227 -136 41 -37 86 -75 99
-83 28 -19 22 -26 118 131 l61 101 -55 22 c-30 12 -62 29 -71 37 -164 140
-216 170 -309 182 -29 4 -53 10 -53 13 0 4 7 42 15 85 8 43 15 81 15 84 0 10
127 -10 175 -28 28 -11 101 -57 163 -104 105 -79 175 -114 206 -102 12 5 99
200 110 247 6 24 -1 28 -311 145 l-318 121 -3 108 -3 109 64 -6 c86 -8 157
-36 284 -114 60 -36 129 -76 155 -89 50 -26 174 -51 200 -42 10 4 26 50 47
132 17 69 31 131 31 138 0 9 -13 12 -45 10 -110 -9 -240 35 -425 145 -111 65
-210 104 -282 111 -49 4 -59 8 -63 26 -2 12 -15 68 -29 125 l-24 104 78 -6
c101 -8 203 -46 360 -134 69 -39 159 -82 199 -97 83 -30 211 -44 253 -28 25
10 26 15 33 109 3 54 7 107 8 118 2 17 -3 20 -38 17 -66 -4 -202 17 -278 44
-40 15 -135 59 -212 99 -198 103 -267 126 -392 133 -57 2 -103 9 -103 14 0 6
-27 66 -60 135 -33 69 -60 127 -60 128 0 8 147 10 209 4 107 -12 183 -39 386
-139 242 -120 281 -132 434 -138 l124 -5 -7 104 c-38 570 -193 1075 -480 1557
-275 461 -702 887 -1168 1163 -405 241 -848 393 -1318 455 -117 15 -582 28
-655 18z m326 -421 l85 -198 211 -15 c116 -8 214 -18 217 -21 4 -4 -199 -189
-292 -265 l-25 -21 73 -189 c40 -104 75 -195 77 -202 4 -8 19 0 47 26 171 158
410 266 662 300 l61 8 -52 -85 c-87 -143 -237 -462 -224 -475 2 -2 44 22 92
54 136 90 312 154 480 175 l58 7 -69 -94 c-113 -153 -195 -288 -287 -473 -16
-33 -37 -61 -46 -63 -9 -2 -62 17 -117 42 -659 296 -1425 296 -2084 0 -55 -25
-108 -44 -117 -42 -9 2 -36 41 -59 88 -93 181 -197 350 -300 483 l-45 59 59
-7 c169 -21 351 -87 484 -176 47 -31 87 -56 89 -53 13 13 -137 332 -224 475
l-52 85 61 -8 c244 -33 480 -138 647 -287 48 -43 58 -48 64 -33 3 9 38 100 77
201 l70 184 -30 26 c-153 129 -289 257 -279 262 7 3 102 12 212 19 110 7 203
14 206 16 3 1 43 91 89 198 46 108 86 196 90 196 4 0 45 -89 91 -197z m-2660
-1280 c138 -119 230 -266 280 -449 12 -43 23 -80 24 -82 2 -2 38 14 81 36 145
72 267 102 416 102 88 0 215 -20 272 -44 l29 -12 -109 -86 c-179 -141 -371
-342 -492 -514 l-43 -62 -47 14 c-71 22 -180 28 -258 15 -98 -17 -176 -44
-366 -127 -220 -96 -292 -118 -393 -118 -44 0 -86 3 -93 8 -9 5 15 38 77 109
259 297 420 572 487 833 28 110 49 291 40 351 -12 87 15 95 95 26z m5235 -83
c6 -371 162 -707 519 -1120 63 -73 90 -112 82 -117 -6 -4 -48 -7 -92 -7 -100
0 -181 24 -371 109 -178 80 -289 119 -383 135 -82 14 -192 8 -264 -14 l-44
-13 -71 96 c-131 177 -306 356 -485 495 -48 38 -86 70 -84 73 2 2 35 13 73 25
57 17 95 21 224 21 141 1 163 -2 243 -26 48 -15 124 -45 168 -68 45 -22 82
-39 84 -37 1 2 12 39 24 82 25 93 74 202 122 273 68 101 200 226 233 221 18
-3 20 -12 22 -128z m-2463 -89 c154 -40 305 -141 377 -253 39 -60 66 -125 57
-135 -3 -3 -22 1 -43 7 -151 50 -359 14 -447 -78 -55 -57 -70 -250 -31 -383
21 -70 48 -66 89 14 35 67 54 76 122 53 67 -23 154 -21 215 6 58 25 73 20 101
-33 27 -50 18 -195 -18 -309 -92 -289 -286 -517 -507 -596 -24 -8 -76 -15
-118 -15 -134 -1 -252 59 -380 191 -173 179 -289 451 -277 654 3 71 7 82 31
103 33 28 42 28 97 3 53 -24 136 -26 205 -5 68 20 93 19 139 -10 22 -13 45
-25 51 -25 29 0 44 166 24 271 -13 65 -43 99 -125 140 -95 46 -263 56 -358 20
-58 -22 -61 -8 -16 82 79 157 275 282 494 317 82 12 228 4 318 -19z m-581
-501 c57 -22 84 -41 111 -80 25 -37 21 -41 -25 -24 -24 9 -82 18 -129 21 -73
5 -92 2 -133 -16 -27 -11 -50 -21 -53 -21 -2 0 -10 15 -18 33 -30 72 9 106
122 107 49 0 89 -6 125 -20z m971 9 c38 -17 50 -53 32 -94 -7 -19 -16 -35 -20
-35 -3 0 -22 9 -42 20 -46 24 -142 27 -223 5 -30 -8 -56 -15 -57 -15 -2 0 -3
10 -3 23 0 35 52 77 119 98 40 11 167 10 194 -2z"/>
<path d="M3315 5579 c-93 -72 -172 -138 -173 -146 -3 -12 3 -14 35 -10 166 24
330 30 466 18 78 -7 159 -15 180 -18 32 -4 38 -2 35 10 -4 18 -341 277 -360
276 -7 0 -89 -59 -183 -130z"/>
<path d="M3356 3953 c-16 -8 -26 -21 -24 -31 5 -25 104 -61 168 -61 64 0 163
36 168 61 6 31 -38 42 -164 44 -88 1 -128 -2 -148 -13z"/>
<path d="M3235 3738 c-9 -24 111 -147 170 -174 106 -50 201 -21 303 92 34 38
62 72 62 75 0 15 -32 17 -102 7 -72 -10 -346 -5 -400 8 -20 4 -29 2 -33 -8z"/>
</g>
</svg>
